<svg width="211" height="211" viewBox="0 0 211 211" fill="none" xmlns="http://www.w3.org/2000/svg">
<g clip-path="url(#clip0)">
<path d="M155.282 62.7653L143.663 206.993H119.834L121.287 159.024C129.155 153.875 134.347 144.986 134.347 134.879C134.347 125.398 129.775 116.99 122.713 111.733L122.718 111.728L124.198 62.7653H155.282V62.7653Z" fill="#F2F2F2"/>
<path d="M89.7167 159.029L91.1643 206.993H67.3293L55.7163 62.7653H86.8054L88.2851 111.723L88.2904 111.728C81.2286 116.984 76.6507 125.398 76.6507 134.879C76.6507 144.986 81.8483 153.88 89.7167 159.029Z" fill="#F2F2F2"/>
<path d="M122.713 111.733C129.775 116.99 134.347 125.398 134.347 134.879C134.347 144.986 129.155 153.875 121.286 159.024C116.751 161.999 111.324 163.725 105.496 163.725C99.6737 163.725 94.2464 161.999 89.7166 159.029C81.8482 153.88 76.6506 144.986 76.6506 134.879C76.6506 125.398 81.2285 116.984 88.2904 111.728C93.0926 108.149 99.0487 106.034 105.496 106.034C111.944 106.034 117.905 108.154 122.713 111.733Z" fill="#FFD7E3"/>
<path d="M40.6739 33.252C40.0328 31.6869 39.6803 29.9722 39.6803 28.1773C39.6803 20.795 45.6631 14.8069 53.0507 14.8069C56.7526 14.8069 60.1019 16.3132 62.527 18.7437C64.9095 11.8101 71.4852 6.82091 79.2308 6.82091C84.4817 6.82091 89.1985 9.11253 92.4303 12.7556C94.3159 7.64889 99.225 4.0058 104.983 4.0058C111.073 4.0058 116.207 8.08157 117.825 13.6477C121.057 9.49714 126.099 6.82091 131.767 6.82091C139.513 6.82091 146.094 11.8101 148.476 18.7437C150.896 16.3132 154.245 14.8069 157.952 14.8069C165.335 14.8069 171.323 20.795 171.323 28.1773C171.323 29.9722 170.965 31.6869 170.324 33.252C179.346 34.0426 186.424 41.6119 186.424 50.8425C186.424 55.4364 184.667 59.6243 181.787 62.7653H155.282H124.198H86.8054H55.7163H29.2104C26.3365 59.6243 24.5791 55.4364 24.5791 50.8425C24.5791 41.6119 31.6516 34.0426 40.6739 33.252Z" fill="#F2E3C8"/>
<path d="M79.1325 33.252C78.4915 31.6869 78.1389 29.9722 78.1389 28.1773C78.1389 20.795 84.1217 14.8069 91.5094 14.8069C95.2112 14.8069 98.5605 16.3132 100.986 18.7437C102.949 13.0302 107.763 8.64459 113.729 7.2755C111.384 5.24188 108.331 4.0058 104.983 4.0058C99.225 4.0058 94.3159 7.64889 92.4303 12.7556C89.1985 9.11253 84.4817 6.82091 79.2308 6.82091C71.4852 6.82091 64.9095 11.8101 62.527 18.7437C60.1019 16.3132 56.7526 14.8069 53.0507 14.8069C45.6631 14.8069 39.6803 20.795 39.6803 28.1773C39.6803 29.9722 40.0328 31.6869 40.6739 33.252C31.6516 34.0426 24.5791 41.6119 24.5791 50.8425C24.5791 55.4364 26.3365 59.6243 29.2104 62.7653H55.7163H67.669C64.7952 59.6243 63.0377 55.4364 63.0377 50.8425C63.0377 41.6119 70.1102 34.0426 79.1325 33.252Z" fill="#E3C9A0"/>
<path d="M130.889 12.7556C131.709 10.5351 133.101 8.59279 134.886 7.10457C133.872 6.92348 132.832 6.82092 131.767 6.82092C129.263 6.82092 126.883 7.34442 124.726 8.2851C127.096 9.3166 129.197 10.8486 130.889 12.7556Z" fill="#E3C9A0"/>
<path d="M55.7162 62.7653L67.3292 206.993H46.8809L29.0394 62.7653H29.2104H55.7162Z" fill="#F47198"/>
<path d="M121.287 159.024L119.834 206.993H91.1643L89.7167 159.029C94.2465 161.999 99.6737 163.725 105.496 163.725C111.324 163.725 116.751 161.999 121.287 159.024Z" fill="#F47198"/>
<path d="M124.198 62.7653L122.718 111.728L122.713 111.733C117.905 108.154 111.944 106.034 105.496 106.034C99.0488 106.034 93.0927 108.149 88.2904 111.728L88.2851 111.723L86.8054 62.7653H124.198Z" fill="#F47198"/>
<path d="M181.958 62.7653L164.117 206.993H143.663L155.282 62.7653H181.787H181.958Z" fill="#F47198"/>
<path d="M156.187 175.071C156.023 175.071 155.857 175.061 155.69 175.041C153.494 174.769 151.934 172.769 152.206 170.573L162.21 89.6969C162.482 87.5009 164.486 85.9411 166.678 86.2125C168.874 86.4844 170.434 88.4843 170.162 90.6803L160.158 171.556C159.907 173.586 158.18 175.071 156.187 175.071Z" fill="white"/>
<path d="M168 78.9348C170.213 78.9348 172.007 77.1411 172.007 74.9285C172.007 72.7159 170.213 70.9222 168 70.9222C165.788 70.9222 163.994 72.7159 163.994 74.9285C163.994 77.1411 165.788 78.9348 168 78.9348Z" fill="white"/>
<path d="M190.429 50.843C190.429 41.1081 184.144 32.8818 175.217 30.1442C175.29 29.4941 175.327 28.8381 175.327 28.1778C175.327 18.5963 167.532 10.8011 157.95 10.8011C155.128 10.8011 152.41 11.4683 149.975 12.7289C146.047 6.6473 139.238 2.81511 131.766 2.81511C127.062 2.81511 122.598 4.30707 118.923 7.02443C115.701 2.71522 110.557 0 104.982 0C99.6214 0 94.6391 2.50048 91.3924 6.55489C87.8369 4.14148 83.6041 2.81511 79.2292 2.81511C71.7592 2.81511 64.9511 6.64837 61.0239 12.7305C58.587 11.4693 55.8691 10.8011 53.0491 10.8011C43.4676 10.8011 35.6724 18.5963 35.6724 28.1778C35.6724 28.8386 35.7087 29.4946 35.7819 30.1431C26.8563 32.8802 20.5712 41.1071 20.5712 50.843C20.5712 55.7131 22.1999 60.3925 25.18 64.1958L42.9024 207.486C43.1508 209.493 44.8559 211 46.8783 211H164.117C166.14 211 167.845 209.493 168.093 207.486L185.816 64.1953C188.799 60.3935 190.429 55.7147 190.429 50.843ZM38.5537 37.6873C40.6701 40.715 44.4601 43.9056 50.0321 43.9056C50.6138 43.9056 51.2148 43.8709 51.8355 43.7977C53.9316 43.5499 55.6143 41.8068 55.5539 39.6968C55.4845 37.2786 53.3547 35.5137 51.0187 35.8246C46.5236 36.4255 44.7288 32.5987 44.4094 31.8076C44.404 31.7942 44.3976 31.7819 44.3923 31.7686C44.3875 31.7574 44.3853 31.7451 44.3805 31.7339C44.0595 30.9508 43.849 30.1329 43.7502 29.2921C43.1343 24.0364 47.1091 19.1967 52.3884 18.8356C55.1164 18.6492 57.7168 19.6219 59.6441 21.5279C60.3935 22.2693 61.3951 22.7351 62.4491 22.7506C64.23 22.7768 65.7604 21.6577 66.3144 20.0455C68.2091 14.5318 73.3992 10.8272 79.2292 10.8272C83.1164 10.8272 86.8257 12.4901 89.4106 15.3912C90.1232 16.1909 91.1301 16.7005 92.2001 16.7571C94.0024 16.8522 95.5889 15.763 96.1872 14.1434C97.5408 10.4768 101.075 8.01266 104.982 8.01266C109.082 8.01266 112.749 10.737 113.942 14.653C114.29 15.794 115.05 16.7908 116.135 17.2854C117.882 18.0803 119.863 17.5499 120.984 16.1103C123.598 12.7535 127.528 10.8283 131.766 10.8283C136.926 10.8283 141.579 13.7294 143.897 18.2138C143.16 19.3842 142.344 20.967 141.821 22.8644C140.311 28.3461 141.962 33.8476 146.47 38.3555C147.252 39.1381 148.277 39.5291 149.303 39.5291C150.31 39.5291 151.317 39.1515 152.095 38.3961C153.705 36.831 153.57 34.1612 152.001 32.5533C149.684 30.1778 148.862 27.7756 149.488 25.2137C149.556 24.9365 149.637 24.6694 149.728 24.4146C150.494 22.257 152.138 20.4846 154.239 19.576C155.692 18.9478 157.305 18.6935 158.959 18.8655C163.672 19.3554 167.321 23.4509 167.315 28.1896C167.313 29.4049 167.08 30.5918 166.622 31.7168C166.262 32.5982 166.216 33.5949 166.514 34.4988C167.028 36.0538 168.402 37.1056 169.973 37.2434C176.951 37.855 182.417 43.8282 182.417 50.843C182.417 53.7062 181.515 56.4583 179.87 58.7595H31.127C29.4844 56.4567 28.5838 53.7046 28.5838 50.843C28.5838 44.5664 32.7264 39.2871 38.5537 37.6873ZM105.498 159.721C91.801 159.721 80.6576 148.577 80.6576 134.88C80.6576 121.182 91.801 110.039 105.498 110.039C119.196 110.039 130.339 121.182 130.339 134.88C130.339 148.577 119.196 159.721 105.498 159.721ZM105.498 102.026C100.722 102.026 96.184 103.059 92.0852 104.901L90.933 66.7722H120.068L118.915 104.902C114.814 103.06 110.276 102.026 105.498 102.026ZM82.9166 66.7722L84.2195 109.878C77.1443 115.909 72.6449 124.876 72.6449 134.88C72.6449 145.597 77.8051 155.131 85.7702 161.132L87.0335 202.987H71.0285L60.0592 66.7722H82.9166ZM93.9223 165.621C97.5253 166.982 101.425 167.733 105.498 167.733C109.573 167.733 113.474 166.982 117.077 165.62L115.945 202.987H95.0499L93.9223 165.621ZM125.229 161.13C133.193 155.129 138.352 145.596 138.352 134.88C138.352 124.878 133.854 115.912 126.781 109.881L128.083 66.7722H150.937L139.968 202.987H123.961L125.229 161.13ZM33.5725 66.7722H52.0203L62.9896 202.987H50.4199L33.5725 66.7722ZM160.576 202.987H148.006L158.975 66.7722H177.424L160.576 202.987Z" fill="#333333"/>
<path d="M89.2952 53.6976C91.5077 53.6976 93.3015 51.9038 93.3015 49.6913C93.3015 47.4787 91.5077 45.685 89.2952 45.685C85.6131 45.685 82.618 42.6898 82.618 39.0077C82.618 35.3257 85.6131 32.3305 89.2952 32.3305C91.6744 32.3305 93.8229 33.5629 95.0419 35.6269C95.6775 36.7033 96.7795 37.4212 98.021 37.5681C99.2635 37.7156 100.502 37.2738 101.371 36.3759C103.038 34.6526 105.275 33.7039 107.667 33.7039C112.499 33.7039 116.43 37.6349 116.43 42.4676C116.43 44.6802 118.223 46.4739 120.436 46.4739C122.649 46.4739 124.442 44.6802 124.442 42.4676C124.442 33.2173 116.917 25.6912 107.667 25.6912C104.582 25.6912 101.634 26.5139 99.0637 28.0571C96.4045 25.6896 92.9292 24.3179 89.2957 24.3179C81.1954 24.3179 74.6058 30.9075 74.6058 39.0077C74.6058 47.108 81.1949 53.6976 89.2952 53.6976Z" fill="#333333"/>
</g>
<defs>
<clipPath id="clip0">
<rect width="211" height="211" fill="white"/>
</clipPath>
</defs>
</svg>
