<svg width="185" height="278" viewBox="0 0 185 278" fill="none" xmlns="http://www.w3.org/2000/svg">
<rect width="185" height="278" fill="#FFD7E3"/>
<path d="M46.9334 99.3529C46.9334 91.43 53.3275 85 61.2113 85C69.0929 85 75.4869 91.4277 75.4869 99.3529C75.4869 107.283 69.0929 113.71 61.2113 113.71C53.3275 113.708 46.9334 107.283 46.9334 99.3529ZM111.673 99.3529C111.673 91.43 118.074 85 125.956 85C133.837 85 140.234 91.4277 140.234 99.3529C140.234 107.283 133.84 113.71 125.956 113.71C118.077 113.708 111.673 107.283 111.673 99.3529ZM145.431 158.14C136.582 178.709 115.859 192 92.6361 192C68.9179 192 48.0732 178.642 39.5308 157.968C38.0664 154.427 39.7358 150.362 43.2609 148.89C44.1267 148.532 45.0246 148.36 45.9088 148.36C48.6166 148.36 51.1862 149.971 52.2891 152.645C58.6832 168.118 74.5199 178.115 92.6361 178.115C110.342 178.115 126.087 168.111 132.748 152.626C134.263 149.106 138.33 147.483 141.827 149.011C145.334 150.531 146.946 154.619 145.431 158.14Z" fill="#B16D82"/>
</svg>
