<svg width="300" height="450" viewBox="0 0 300 450" fill="none" xmlns="http://www.w3.org/2000/svg">
<rect width="300" height="450" fill="#7371F4"/>
<g clip-path="url(#clip0)">
<path d="M200.282 182.765L188.663 326.993H164.834L166.287 279.024C174.155 273.875 179.347 264.986 179.347 254.879C179.347 245.398 174.775 236.99 167.713 231.733L167.718 231.728L169.198 182.765H200.282V182.765Z" fill="#F2F2F2"/>
<path d="M134.717 279.029L136.164 326.993H112.329L100.716 182.765H131.805L133.285 231.723L133.29 231.728C126.229 236.984 121.651 245.398 121.651 254.879C121.651 264.986 126.848 273.88 134.717 279.029Z" fill="#F2F2F2"/>
<path d="M167.713 231.733C174.775 236.99 179.347 245.398 179.347 254.879C179.347 264.986 174.155 273.875 166.287 279.024C161.751 281.999 156.324 283.725 150.496 283.725C144.674 283.725 139.246 281.999 134.717 279.029C126.848 273.88 121.651 264.986 121.651 254.879C121.651 245.398 126.229 236.984 133.29 231.728C138.093 228.149 144.049 226.034 150.496 226.034C156.944 226.034 162.905 228.154 167.713 231.733Z" fill="#FFD7E3"/>
<path d="M85.6739 153.252C85.0328 151.687 84.6803 149.972 84.6803 148.177C84.6803 140.795 90.6631 134.807 98.0507 134.807C101.753 134.807 105.102 136.313 107.527 138.744C109.909 131.81 116.485 126.821 124.231 126.821C129.482 126.821 134.199 129.113 137.43 132.756C139.316 127.649 144.225 124.006 149.983 124.006C156.073 124.006 161.207 128.082 162.825 133.648C166.057 129.497 171.099 126.821 176.767 126.821C184.513 126.821 191.094 131.81 193.476 138.744C195.896 136.313 199.245 134.807 202.952 134.807C210.335 134.807 216.323 140.795 216.323 148.177C216.323 149.972 215.965 151.687 215.324 153.252C224.346 154.043 231.424 161.612 231.424 170.842C231.424 175.436 229.667 179.624 226.787 182.765H200.282H169.198H131.805H100.716H74.2104C71.3365 179.624 69.5791 175.436 69.5791 170.842C69.5791 161.612 76.6516 154.043 85.6739 153.252Z" fill="#F2E3C8"/>
<path d="M124.132 153.252C123.491 151.687 123.139 149.972 123.139 148.177C123.139 140.795 129.122 134.807 136.509 134.807C140.211 134.807 143.561 136.313 145.986 138.744C147.949 133.03 152.763 128.645 158.729 127.275C156.384 125.242 153.331 124.006 149.983 124.006C144.225 124.006 139.316 127.649 137.43 132.756C134.199 129.113 129.482 126.821 124.231 126.821C116.485 126.821 109.909 131.81 107.527 138.744C105.102 136.313 101.753 134.807 98.0507 134.807C90.6631 134.807 84.6803 140.795 84.6803 148.177C84.6803 149.972 85.0328 151.687 85.6739 153.252C76.6516 154.043 69.5791 161.612 69.5791 170.842C69.5791 175.436 71.3365 179.624 74.2104 182.765H100.716H112.669C109.795 179.624 108.038 175.436 108.038 170.842C108.038 161.612 115.11 154.043 124.132 153.252Z" fill="#E3C9A0"/>
<path d="M175.889 132.756C176.709 130.535 178.101 128.593 179.886 127.105C178.872 126.923 177.832 126.821 176.767 126.821C174.263 126.821 171.883 127.344 169.726 128.285C172.096 129.317 174.197 130.849 175.889 132.756Z" fill="#E3C9A0"/>
<path d="M100.716 182.765L112.329 326.993H91.881L74.0395 182.765H74.2104H100.716Z" fill="#F47198"/>
<path d="M166.287 279.024L164.834 326.993H136.164L134.717 279.029C139.246 281.999 144.674 283.725 150.496 283.725C156.324 283.725 161.751 281.999 166.287 279.024Z" fill="#F47198"/>
<path d="M169.198 182.765L167.718 231.728L167.713 231.733C162.905 228.154 156.944 226.034 150.496 226.034C144.049 226.034 138.093 228.149 133.29 231.728L133.285 231.723L131.805 182.765H169.198Z" fill="#F47198"/>
<path d="M226.958 182.765L209.117 326.993H188.663L200.282 182.765H226.787H226.958Z" fill="#F47198"/>
<path d="M201.187 295.071C201.023 295.071 200.857 295.061 200.69 295.041C198.494 294.769 196.934 292.769 197.206 290.573L207.21 209.697C207.482 207.501 209.486 205.941 211.678 206.212C213.874 206.484 215.434 208.484 215.162 210.68L205.158 291.556C204.907 293.586 203.18 295.071 201.187 295.071Z" fill="white"/>
<path d="M213 198.935C215.213 198.935 217.007 197.141 217.007 194.929C217.007 192.716 215.213 190.922 213 190.922C210.788 190.922 208.994 192.716 208.994 194.929C208.994 197.141 210.788 198.935 213 198.935Z" fill="white"/>
<path d="M235.429 170.843C235.429 161.108 229.144 152.882 220.217 150.144C220.29 149.494 220.327 148.838 220.327 148.178C220.327 138.596 212.532 130.801 202.95 130.801C200.128 130.801 197.41 131.468 194.975 132.729C191.047 126.647 184.238 122.815 176.766 122.815C172.062 122.815 167.598 124.307 163.923 127.024C160.701 122.715 155.557 120 149.982 120C144.621 120 139.639 122.5 136.392 126.555C132.837 124.141 128.604 122.815 124.229 122.815C116.759 122.815 109.951 126.648 106.024 132.731C103.587 131.469 100.869 130.801 98.0491 130.801C88.4676 130.801 80.6724 138.596 80.6724 148.178C80.6724 148.839 80.7087 149.495 80.7819 150.143C71.8563 152.88 65.5712 161.107 65.5712 170.843C65.5712 175.713 67.1999 180.392 70.18 184.196L87.9024 327.486C88.1508 329.493 89.8559 331 91.8783 331H209.117C211.14 331 212.845 329.493 213.093 327.486L230.816 184.195C233.799 180.394 235.429 175.715 235.429 170.843ZM83.5537 157.687C85.6701 160.715 89.4601 163.906 95.0321 163.906C95.6138 163.906 96.2148 163.871 96.8355 163.798C98.9316 163.55 100.614 161.807 100.554 159.697C100.484 157.279 98.3547 155.514 96.0187 155.825C91.5236 156.426 89.7288 152.599 89.4094 151.808C89.404 151.794 89.3976 151.782 89.3923 151.769C89.3875 151.757 89.3853 151.745 89.3805 151.734C89.0595 150.951 88.849 150.133 88.7502 149.292C88.1343 144.036 92.1091 139.197 97.3884 138.836C100.116 138.649 102.717 139.622 104.644 141.528C105.394 142.269 106.395 142.735 107.449 142.751C109.23 142.777 110.76 141.658 111.314 140.046C113.209 134.532 118.399 130.827 124.229 130.827C128.116 130.827 131.826 132.49 134.411 135.391C135.123 136.191 136.13 136.701 137.2 136.757C139.002 136.852 140.589 135.763 141.187 134.143C142.541 130.477 146.075 128.013 149.982 128.013C154.082 128.013 157.749 130.737 158.942 134.653C159.29 135.794 160.05 136.791 161.135 137.285C162.882 138.08 164.863 137.55 165.984 136.11C168.598 132.753 172.528 130.828 176.766 130.828C181.926 130.828 186.579 133.729 188.897 138.214C188.16 139.384 187.344 140.967 186.821 142.864C185.311 148.346 186.962 153.848 191.47 158.356C192.252 159.138 193.277 159.529 194.303 159.529C195.31 159.529 196.317 159.151 197.095 158.396C198.705 156.831 198.57 154.161 197.001 152.553C194.684 150.178 193.862 147.776 194.488 145.214C194.556 144.936 194.637 144.669 194.728 144.415C195.494 142.257 197.138 140.485 199.239 139.576C200.692 138.948 202.305 138.694 203.959 138.866C208.672 139.355 212.321 143.451 212.315 148.19C212.313 149.405 212.08 150.592 211.622 151.717C211.262 152.598 211.216 153.595 211.514 154.499C212.028 156.054 213.402 157.106 214.973 157.243C221.951 157.855 227.417 163.828 227.417 170.843C227.417 173.706 226.515 176.458 224.87 178.759H76.127C74.4844 176.457 73.5838 173.705 73.5838 170.843C73.5838 164.566 77.7264 159.287 83.5537 157.687ZM150.498 279.721C136.801 279.721 125.658 268.577 125.658 254.88C125.658 241.182 136.801 230.039 150.498 230.039C164.196 230.039 175.339 241.182 175.339 254.88C175.339 268.577 164.196 279.721 150.498 279.721ZM150.498 222.026C145.722 222.026 141.184 223.059 137.085 224.901L135.933 186.772H165.068L163.915 224.902C159.814 223.06 155.276 222.026 150.498 222.026ZM127.917 186.772L129.219 229.878C122.144 235.909 117.645 244.876 117.645 254.88C117.645 265.597 122.805 275.131 130.77 281.132L132.033 322.987H116.028L105.059 186.772H127.917ZM138.922 285.621C142.525 286.982 146.425 287.733 150.498 287.733C154.573 287.733 158.474 286.982 162.077 285.62L160.945 322.987H140.05L138.922 285.621ZM170.229 281.13C178.193 275.129 183.352 265.596 183.352 254.88C183.352 244.878 178.854 235.912 171.781 229.881L173.083 186.772H195.937L184.968 322.987H168.961L170.229 281.13ZM78.5725 186.772H97.0203L107.99 322.987H95.4199L78.5725 186.772ZM205.576 322.987H193.006L203.975 186.772H222.424L205.576 322.987Z" fill="#333333"/>
<path d="M134.295 173.698C136.508 173.698 138.302 171.904 138.302 169.691C138.302 167.479 136.508 165.685 134.295 165.685C130.613 165.685 127.618 162.69 127.618 159.008C127.618 155.326 130.613 152.331 134.295 152.331C136.674 152.331 138.823 153.563 140.042 155.627C140.678 156.703 141.78 157.421 143.021 157.568C144.263 157.716 145.502 157.274 146.371 156.376C148.038 154.653 150.275 153.704 152.667 153.704C157.499 153.704 161.43 157.635 161.43 162.468C161.43 164.68 163.223 166.474 165.436 166.474C167.649 166.474 169.442 164.68 169.442 162.468C169.442 153.217 161.917 145.691 152.667 145.691C149.582 145.691 146.634 146.514 144.064 148.057C141.405 145.69 137.929 144.318 134.296 144.318C126.195 144.318 119.606 150.907 119.606 159.008C119.606 167.108 126.195 173.698 134.295 173.698Z" fill="#333333"/>
</g>
<defs>
<clipPath id="clip0">
<rect width="211" height="211" fill="white" transform="translate(45 120)"/>
</clipPath>
</defs>
</svg>
